# xmcd CD database file generated by OrangeCD 4.3
#
# Track frame offsets:
#	150
#	20258
#	37274
#	56067
#	69324
#	83705
#	103053
#	118886
#	139581
#	157026
#	171788
#	187581
#
# Disc length: 2678 seconds
#
# Revision: 0
# Processed by: cddbd v1.4PL0 Copyright (c) Steve Scherf et al.
# Submitted via: OrangeCD 4.3
#
DISCID=9d0a740c
DTITLE=Eric Clapton - A Tribute to Eric Clapton
DYEAR=1900
DGENRE=
TTITLE0=Layla (Acoustic)
TTITLE1=Cocaine
TTITLE2=Tears In Heaven
TTITLE3=Wonderful Tonight
TTITLE4=Edge Of Darkness
TTITLE5=Ridin' With The King
TTITLE6=White Room
TTITLE7=My Father's Eyes
TTITLE8=Change The World
TTITLE9=Tulsa Time
TTITLE10=Shot The Sheriff
TTITLE11=After Midnight
EXTD=
EXTT0=
EXTT1=
EXTT2=
EXTT3=
EXTT4=
EXTT5=
EXTT6=
EXTT7=
EXTT8=
EXTT9=
EXTT10=
EXTT11=
PLAYORDER=
